<svg xmlns="http://www.w3.org/2000/svg" width="172.799" height="172.799" viewBox="0 0 4571.98 4571.98" shape-rendering="geometricPrecision" text-rendering="geometricPrecision" image-rendering="optimizeQuality" fill-rule="evenodd" clip-rule="evenodd"><path fill="none" stroke="#000" stroke-width="169.33" stroke-miterlimit="22.926" d="M118.52 118.52h4334.93v4334.93H118.52z"/><path d="M1371.92 1348.41h-242.29V759.48H842.97v588.93H600.68V548.38h771.24v800.03zm836.61-101.35c-83.56 77.16-187.71 115.74-312.45 115.74-124.75 0-228.9-38.58-312.46-115.74-83.56-77.17-125.34-176.52-125.34-298.06 0-121.55 41.78-220.9 125.34-298.06 83.56-77.17 187.71-115.75 312.46-115.75 124.74 0 228.89 38.58 312.45 115.75 83.56 77.16 125.34 176.51 125.34 298.06 0 121.54-41.78 220.89-125.34 298.06zm-450.99-155.33c35.58 38.38 81.76 57.57 138.54 57.57 56.77 0 102.95-19.19 138.53-57.57 35.58-38.38 53.38-85.96 53.38-142.73 0-56.78-17.8-104.35-53.38-142.74-35.58-38.38-81.76-57.57-138.53-57.57-56.78 0-102.96 19.19-138.54 57.57-35.58 38.39-53.37 85.96-53.37 142.74 0 56.77 17.79 104.35 53.37 142.73zm585.93 404.21V1149.3c39.98-7.19 70.77-24.19 92.36-50.97 21.59-26.79 36.78-75.77 45.57-146.93l49.18-403.02h624.91v588.93h69.57v358.63h-242.29v-147.53h-397.01v147.53h-242.29zm379.02-526.55c-7.99 66.37-33.98 122.34-77.96 167.92h268.67V759.48h-164.32l-26.39 209.91zm825.22 379.02h-242.29V548.38h427c90.36 0 160.93 26.19 211.7 78.57 50.78 52.37 76.17 117.74 76.17 196.11 0 77.56-25.39 142.53-76.17 194.9-50.77 52.38-121.34 78.57-211.7 78.57h-184.71v251.88zm153.52-462.98c21.59 0 39.19-5.4 52.78-16.2 13.59-10.79 20.39-26.18 20.39-46.17 0-20.8-6.8-36.59-20.39-47.38-13.59-10.8-31.19-16.2-52.78-16.2h-153.52v125.95h153.52zM729.33 2532.75c-88.51 0-159.47-20.6-212.88-61.8l93.85-176.25c33.57 22.89 66.38 34.33 98.43 34.33 35.1 0 60.66-12.21 76.68-36.62l-268.96-536.77h258.66l140.77 310.16 141.92-310.16h258.66l-305.58 610.02c-56.46 111.39-150.31 167.09-281.55 167.09zm827.48-13.73h-281.55l301-408.59-288.41-354.79h282.69l177.4 254.08v-254.08h231.19v254.08l177.39-254.08h282.7l-288.42 354.79 301.01 408.59h-281.55l-171.68-268.96-19.45 26.33v242.63h-231.19v-242.63l-19.46-26.33-171.67 268.96zm1662.95 0h-281.55l-171.67-268.96-42.35 57.23v211.73H2493v-763.38h231.19v286.12l200.29-286.12h282.69l-288.41 354.79 301 408.59zm263.24 0h-222.04v-763.38h231.19v407.44l265.53-407.44h238.05v763.38h-231.19V2086.4L3483 2519.02zM994.15 3937.61c-187.39 0-338.68-51.73-453.85-155.19l153.73-219.6c87.84 83.93 192.76 125.9 314.76 125.9 72.23 0 108.34-17.57 108.34-52.7 0-16.59-18.79-29.28-56.37-38.07-37.57-8.78-82.96-18.05-136.15-27.81-53.19-9.76-106.39-23.92-159.58-42.46-53.19-18.54-98.58-51.24-136.15-98.09-37.58-46.85-56.37-105.9-56.37-177.15 0-88.82 35.87-164.95 107.61-228.39 71.73-63.44 171.04-95.16 297.93-95.16 164.94 0 303.05 45.39 414.32 136.16l-158.12 209.35c-84.91-64.41-180.56-96.62-286.95-96.62-49.77 0-74.66 14.64-74.66 43.92 0 13.66 13.42 25.37 40.26 35.13 26.84 9.76 60.27 17.33 100.28 22.7 40.02 5.37 83.7 15.13 131.03 29.28 47.34 14.15 91.02 30.99 131.04 50.51 40.01 19.52 73.44 50.02 100.28 91.5 26.84 41.48 40.26 90.52 40.26 147.13 0 107.37-37.33 190.82-112 250.35-74.66 59.54-177.88 89.31-309.64 89.31zm1677.78-17.57H2376.2v-587.08l-218.15 587.08h-131.76l-218.14-587.08v587.08h-295.73v-976.51h408.46l171.29 468.49 171.29-468.49h408.47v976.51zm1317.63 0h-295.73v-587.08l-218.15 587.08h-131.76l-218.14-587.08v587.08h-295.73v-976.51h408.46l171.29 468.49 171.29-468.49h408.47v976.51z" fill-rule="nonzero"/></svg>