<svg xmlns="http://www.w3.org/2000/svg" width="236.5" height="236.5" viewBox="0 0 6257.4 6257.4" shape-rendering="geometricPrecision" text-rendering="geometricPrecision" image-rendering="optimizeQuality" fill-rule="evenodd" clip-rule="evenodd"><path d="M3128.18 5040.84c-1058.33 0-1931.46-846.67-1931.46-1905s873.13-1931.46 1931.46-1931.46c793.75 0 1508.13 529.17 1772.71 1243.54l-264.58 26.46c-264.58-582.08-846.67-1005.42-1508.13-1005.42-926.04 0-1666.88 740.83-1666.88 1666.88 0 899.58 740.83 1640.42 1666.88 1640.42 661.46 0 1243.54-396.88 1508.13-978.96l264.58 26.46c-264.58 714.38-978.96 1217.08-1772.71 1217.08zm0-1772.7v-264.58l3122.09-.01c-52.92-767.29-343.96-1508.13-926.04-2090.21-1217.09-1217.08-3201.46-1217.08-4418.55 0-1217.09 1217.08-1217.08 3201.46 0 4418.54 555.63 555.63 1270 873.13 2010.83 926.04l3333.76.01V3268.14H3128.18z" fill="#1890ff"/></svg>